<mxfile host="app.diagrams.net" agent="Mozilla/5.0 (Windows NT 10.0; Win64; x64) AppleWebKit/537.36 (KHTML, like Gecko) Chrome/135.0.0.0 Safari/537.36" version="26.2.14" pages="2">
  <diagram id="prtHgNgQTEPvFCAcTncT" name="Page-1">
    <mxGraphModel dx="1148" dy="518" grid="1" gridSize="10" guides="1" tooltips="1" connect="1" arrows="1" fold="1" page="1" pageScale="1" pageWidth="827" pageHeight="1169" math="0" shadow="0">
      <root>
        <mxCell id="0" />
        <mxCell id="1" parent="0" />
        <mxCell id="lMqTlRjusJs-bFD9PDSq-2" value="Chat with LLMs" style="swimlane;childLayout=stackLayout;resizeParent=1;resizeParentMax=0;startSize=20;html=1;" vertex="1" parent="1">
          <mxGeometry x="150" y="70" width="720" height="555" as="geometry" />
        </mxCell>
        <mxCell id="lMqTlRjusJs-bFD9PDSq-3" value="前端" style="swimlane;startSize=20;html=1;" vertex="1" parent="lMqTlRjusJs-bFD9PDSq-2">
          <mxGeometry y="20" width="120" height="535" as="geometry" />
        </mxCell>
        <mxCell id="RTw3YIjJOf3kqwoV2Vnw-30" value="LangGraph" style="swimlane;startSize=20;html=1;" vertex="1" parent="lMqTlRjusJs-bFD9PDSq-2">
          <mxGeometry x="120" y="20" width="120" height="535" as="geometry" />
        </mxCell>
        <mxCell id="lMqTlRjusJs-bFD9PDSq-4" value="RAG" style="swimlane;startSize=20;html=1;" vertex="1" parent="lMqTlRjusJs-bFD9PDSq-2">
          <mxGeometry x="240" y="20" width="120" height="535" as="geometry" />
        </mxCell>
        <mxCell id="lMqTlRjusJs-bFD9PDSq-5" value="KG" style="swimlane;startSize=20;html=1;" vertex="1" parent="lMqTlRjusJs-bFD9PDSq-2">
          <mxGeometry x="360" y="20" width="120" height="535" as="geometry" />
        </mxCell>
        <mxCell id="RTw3YIjJOf3kqwoV2Vnw-11" value="Prompts" style="swimlane;startSize=20;html=1;" vertex="1" parent="lMqTlRjusJs-bFD9PDSq-2">
          <mxGeometry x="480" y="20" width="120" height="535" as="geometry" />
        </mxCell>
        <mxCell id="RTw3YIjJOf3kqwoV2Vnw-2" value="MCP" style="swimlane;startSize=20;html=1;" vertex="1" parent="lMqTlRjusJs-bFD9PDSq-2">
          <mxGeometry x="600" y="20" width="120" height="535" as="geometry" />
        </mxCell>
        <mxCell id="RTw3YIjJOf3kqwoV2Vnw-13" value="FAQ" style="swimlane;startSize=20;horizontal=0;html=1;" vertex="1" parent="1">
          <mxGeometry x="130" y="110" width="740" height="180" as="geometry" />
        </mxCell>
        <mxCell id="RTw3YIjJOf3kqwoV2Vnw-14" value="RAG" style="swimlane;startSize=20;horizontal=0;html=1;" vertex="1" parent="1">
          <mxGeometry x="130" y="290" width="740" height="60" as="geometry" />
        </mxCell>
        <mxCell id="RTw3YIjJOf3kqwoV2Vnw-15" value="Lane 3" style="swimlane;startSize=20;horizontal=0;html=1;" vertex="1" parent="1">
          <mxGeometry x="130" y="350" width="740" height="110" as="geometry" />
        </mxCell>
        <mxCell id="RTw3YIjJOf3kqwoV2Vnw-29" value="Lane 3" style="swimlane;startSize=20;horizontal=0;html=1;" vertex="1" parent="1">
          <mxGeometry x="130" y="460" width="740" height="110" as="geometry" />
        </mxCell>
      </root>
    </mxGraphModel>
  </diagram>
  <diagram id="MzHaI2W0ZUEJy1ZeamTa" name="第 2 页">
    <mxGraphModel grid="1" page="1" gridSize="10" guides="1" tooltips="1" connect="1" arrows="1" fold="1" pageScale="1" pageWidth="827" pageHeight="1169" math="0" shadow="0">
      <root>
        <mxCell id="0" />
        <mxCell id="1" parent="0" />
      </root>
    </mxGraphModel>
  </diagram>
</mxfile>
